<svg aria-hidden="true" style="position: absolute; width: 0; height: 0; overflow: hidden;" version="1.1" xmlns="http://www.w3.org/2000/svg" xmlns:xlink="http://www.w3.org/1999/xlink">
  <defs>

<symbol id="Logo" viewBox="0 0 156 32">
<path d="M155.882 24.156v3.864h-3.241c-3.46-0.109-5.308-1.977-5.308-5.485v-8.826h-2.263v-3.39h2.263v-3.795h4.783v3.756h3.657v3.38h-3.657v8.401c0 1.137 0.228 2.046 1.978 2.046l1.788 0.049z"></path>
<path d="M126.006 19.204v-0.257c-0.052-1.137 0.121-2.273 0.509-3.342s0.983-2.052 1.752-2.892c0.769-0.839 1.695-1.518 2.726-1.999s2.148-0.753 3.284-0.801c0.228 0 0.465 0 0.692 0 4.517 0 8.48 2.629 8.48 8.895v1.334h-12.552c0.128 2.886 1.69 4.517 4.319 4.517 2.263 0 3.32-0.988 3.628-2.431h4.517c-0.554 3.766-3.558 5.861-8.312 5.861-5.219-0.040-9.044-3.341-9.044-8.885zM138.747 17.119c-0.169-2.629-1.492-3.894-3.795-3.894-2.304 0-3.628 1.423-3.954 3.894h7.749z"></path>
<path d="M106.477 19.204v-0.257c-0.052-1.135 0.121-2.269 0.507-3.338s0.98-2.050 1.747-2.889 1.691-1.519 2.72-2c1.029-0.482 2.143-0.756 3.278-0.806 0.227 0 0.465 0 0.692 0 4.517 0 8.49 2.629 8.49 8.895v1.334h-12.542c0.129 2.886 1.69 4.517 4.319 4.517 2.263 0 3.321-0.988 3.627-2.431h4.517c-0.563 3.766-3.568 5.861-8.322 5.861-5.209-0.040-9.033-3.341-9.033-8.885zM119.216 17.119c-0.168-2.629-1.492-3.894-3.795-3.894s-3.588 1.463-3.953 3.884l7.749 0.010z"></path>
<path d="M79.068 10.279h5.060l3.094 11.722 3.39-11.722h3.953l3.064 11.722 3.262-11.722h4.635l-5.495 17.415h-4.744l-2.965-10.931-3.173 10.931h-4.803l-5.278-17.415z"></path>
<path d="M62.988 22.218h4.517c0.208 1.572 0.988 2.471 3.064 2.471 1.858 0 2.718-0.702 2.718-1.898s-0.988-1.7-3.518-2.056c-4.635-0.702-6.424-2.036-6.424-5.436 0-3.627 3.321-5.426 6.918-5.426 3.864 0 6.78 1.403 7.195 5.406h-4.457c-0.028-0.309-0.118-0.61-0.263-0.885s-0.344-0.518-0.584-0.715c-0.24-0.197-0.516-0.346-0.814-0.436s-0.61-0.12-0.919-0.089h-0.148c-1.562 0-2.471 0.731-2.471 1.799s0.84 1.532 3.39 1.898c4.329 0.652 6.75 1.749 6.75 5.475s-2.738 5.723-7.324 5.723c-4.586 0-7.502-2.066-7.63-5.831z"></path>
<path d="M43.795 10.278h4.784v2.758c0.539-1.012 1.358-1.848 2.358-2.409s2.141-0.822 3.285-0.754c3.39 0 5.851 2.066 5.851 6.78v11.079h-4.724v-10.388c0-2.362-0.919-3.489-3.054-3.489-0.451-0.039-0.906 0.011-1.337 0.148s-0.832 0.358-1.178 0.65c-0.346 0.292-0.631 0.649-0.839 1.052s-0.334 0.842-0.371 1.293c-0.025 0.21-0.025 0.423 0 0.633v10.061h-4.774v-17.415z"></path>
<path d="M34.562 5.9c-0.017-0.477 0.107-0.948 0.358-1.354s0.616-0.729 1.050-0.927c0.434-0.198 0.917-0.263 1.389-0.187s0.909 0.291 1.258 0.617 0.594 0.747 0.703 1.212c0.109 0.465 0.078 0.951-0.089 1.398s-0.464 0.834-0.851 1.112c-0.388 0.278-0.849 0.436-1.326 0.452h-0.089c-0.296 0.019-0.593-0.021-0.873-0.117s-0.54-0.247-0.762-0.443c-0.222-0.197-0.403-0.435-0.533-0.702s-0.206-0.556-0.223-0.853c-0.008-0.069-0.012-0.138-0.010-0.208zM34.562 10.279h4.833v17.415h-4.813l-0.020-17.415z"></path>
<path d="M16.348 3.894h15.28v4.22h-9.884v6.296h7.828v4.062h-7.838v9.221h-5.386v-23.8z"></path>
<path d="M7.126 11.682c0 1.492 0 3.311-2.056 4.052 2.105 0.721 2.056 2.253 2.056 3.855v5.93c0 1.127 0.455 1.809 1.265 1.977 0.178 0.060 0.366 0.087 0.553 0.079h1.977v3.953h-3.262c-3.479 0-5.396-1.977-5.396-5.643v-7.017c-0.025-0.36-0.184-0.698-0.445-0.947s-0.607-0.391-0.968-0.397h-0.85v-3.469h0.85c0.368-0.005 0.72-0.151 0.984-0.409s0.417-0.607 0.43-0.975v-7.116c0-3.607 1.878-5.555 5.396-5.555h3.291v3.894h-1.977c-0.188 0.001-0.375 0.031-0.553 0.089-0.81 0.208-1.265 0.88-1.265 1.977l-0.030 5.723z"></path>
</symbol>

<symbol id="icon-menu" viewBox="0 0 64 32">
<path stroke-linecap="round" stroke-linejoin="round" stroke-width="5.714" d="M2.857 4.667h58.286M2.857 27.333h58.286" />
</symbol>

<symbol id="linkedin" viewBox="0 0 32 32">
<path d="M29.631 0h-27.269c-1.306 0-2.362 1.031-2.362 2.306v27.381c0 1.275 1.056 2.312 2.362 2.312h27.269c1.306 0 2.369-1.037 2.369-2.306v-27.388c0-1.275-1.062-2.306-2.369-2.306zM9.494 27.269h-4.75v-15.275h4.75v15.275zM7.119 9.912c-1.525 0-2.756-1.231-2.756-2.75s1.231-2.75 2.756-2.75c1.519 0 2.75 1.231 2.75 2.75 0 1.512-1.231 2.75-2.75 2.75zM27.269 27.269h-4.744v-7.425c0-1.769-0.031-4.050-2.469-4.050-2.469 0-2.844 1.931-2.844 3.925v7.55h-4.738v-15.275h4.55v2.088h0.063c0.631-1.2 2.181-2.469 4.488-2.469 4.806 0 5.694 3.162 5.694 7.275v8.381z"></path>
</symbol>

<symbol id="instagram" viewBox="0 0 34 32">
<path d="M16.668 2.881c4.275 0 4.781 0.019 6.462 0.094 1.563 0.069 2.406 0.331 2.969 0.55 0.744 0.288 1.281 0.638 1.838 1.194 0.562 0.562 0.906 1.094 1.194 1.838 0.219 0.563 0.481 1.412 0.55 2.969 0.075 1.688 0.094 2.194 0.094 6.463 0 4.275-0.019 4.781-0.094 6.463-0.069 1.563-0.331 2.406-0.55 2.969-0.287 0.744-0.637 1.281-1.194 1.837-0.563 0.563-1.094 0.906-1.838 1.194-0.562 0.219-1.412 0.481-2.969 0.55-1.687 0.075-2.194 0.094-6.462 0.094-4.275 0-4.781-0.019-6.463-0.094-1.563-0.069-2.406-0.331-2.969-0.55-0.744-0.287-1.281-0.637-1.838-1.194-0.563-0.562-0.906-1.094-1.194-1.837-0.219-0.563-0.481-1.413-0.55-2.969-0.075-1.687-0.094-2.194-0.094-6.463 0-4.275 0.019-4.781 0.094-6.463 0.069-1.563 0.331-2.406 0.55-2.969 0.287-0.744 0.638-1.281 1.194-1.838 0.563-0.563 1.094-0.906 1.838-1.194 0.563-0.219 1.412-0.481 2.969-0.55 1.681-0.075 2.188-0.094 6.463-0.094zM16.668 0c-4.344 0-4.888 0.019-6.594 0.094-1.7 0.075-2.869 0.35-3.881 0.744-1.056 0.412-1.95 0.956-2.837 1.85-0.894 0.888-1.438 1.781-1.85 2.831-0.394 1.019-0.669 2.181-0.744 3.881-0.075 1.713-0.094 2.256-0.094 6.6s0.019 4.888 0.094 6.594c0.075 1.7 0.35 2.869 0.744 3.881 0.413 1.056 0.956 1.95 1.85 2.837 0.887 0.888 1.781 1.438 2.831 1.844 1.019 0.394 2.181 0.669 3.881 0.744 1.706 0.075 2.25 0.094 6.594 0.094s4.887-0.019 6.594-0.094c1.7-0.075 2.869-0.35 3.881-0.744 1.050-0.406 1.944-0.956 2.831-1.844s1.437-1.781 1.844-2.831c0.394-1.019 0.669-2.181 0.744-3.881 0.075-1.706 0.094-2.25 0.094-6.594s-0.019-4.887-0.094-6.594c-0.075-1.7-0.35-2.869-0.744-3.881-0.394-1.062-0.938-1.956-1.831-2.844-0.887-0.887-1.781-1.438-2.831-1.844-1.019-0.394-2.181-0.669-3.881-0.744-1.713-0.081-2.256-0.1-6.6-0.1z"></path>
<path d="M16.668 7.781c-4.537 0-8.219 3.681-8.219 8.219s3.681 8.219 8.219 8.219c4.537 0 8.219-3.681 8.219-8.219s-3.681-8.219-8.219-8.219zM16.668 21.331c-2.944 0-5.331-2.387-5.331-5.331s2.387-5.331 5.331-5.331c2.944 0 5.331 2.388 5.331 5.331s-2.387 5.331-5.331 5.331z"></path>
<path d="M27.13 7.458c0 1.062-0.862 1.919-1.919 1.919-1.063 0-1.919-0.863-1.919-1.919 0-1.063 0.862-1.919 1.919-1.919s1.919 0.862 1.919 1.919z"></path>
</symbol>

<symbol id="facebook" viewBox="0 0 32 32">
<path d="M32 16c0-8.837-7.163-16-16-16s-16 7.163-16 16c0 7.986 5.851 14.605 13.5 15.806v-11.181h-4.063v-4.625h4.063v-3.525c0-4.010 2.389-6.225 6.043-6.225 1.75 0 3.582 0.313 3.582 0.313v3.938h-2.017c-1.988 0-2.608 1.233-2.608 2.5v3h4.438l-0.709 4.625h-3.728v11.181c7.649-1.2 13.5-7.82 13.5-15.806z"></path>
</symbol>

<symbol id="twitter" viewBox="0 0 39 32">
<path d="M13.027 30.858c13.797 0 21.346-11.434 21.346-21.346 0-0.321-0.007-0.65-0.022-0.971 1.469-1.062 2.736-2.377 3.742-3.884-1.368 0.608-2.82 1.006-4.306 1.179 1.566-0.938 2.738-2.413 3.299-4.149-1.473 0.873-3.083 1.489-4.763 1.821-1.131-1.202-2.628-1.998-4.257-2.265s-3.301 0.011-4.757 0.789c-1.456 0.779-2.615 2.015-3.297 3.519s-0.851 3.19-0.479 4.798c-2.982-0.15-5.9-0.924-8.563-2.274s-5.014-3.244-6.898-5.56c-0.958 1.651-1.251 3.606-0.82 5.465s1.554 3.486 3.141 4.547c-1.191-0.038-2.356-0.359-3.399-0.936v0.093c-0.001 1.733 0.598 3.413 1.696 4.754s2.626 2.261 4.324 2.603c-1.104 0.302-2.262 0.346-3.385 0.129 0.479 1.49 1.412 2.794 2.668 3.729s2.772 1.454 4.338 1.486c-2.657 2.087-5.94 3.22-9.319 3.214-0.599-0.001-1.198-0.038-1.793-0.11 3.433 2.203 7.426 3.372 11.505 3.37z"></path>
</symbol>

<symbol id="icon-Illustration" viewBox="0 0 638 362">
<svg width="638" height="362" viewBox="0 0 638 362" fill="none" xmlns="http://www.w3.org/2000/svg">
<path d="M80 17.0253C80 7.62247 87.6225 0 97.0253 0H541.475C550.877 0 558.5 7.62248 558.5 17.0253V344.09C558.5 353.493 550.877 361.115 541.475 361.115H97.0253C87.6225 361.115 80 353.493 80 344.09V17.0253Z" fill="url(#paint0_linear_757_682)" />
  <path fill-rule="evenodd" clip-rule="evenodd" d="M541.225 1.79213H96.7753C88.3622 1.79213 81.5421 8.61224 81.5421 17.0253V344.09C81.5421 352.503 88.3622 359.323 96.7753 359.323H541.225C549.638 359.323 556.458 352.503 556.458 344.09V17.0253C556.458 8.61225 549.638 1.79213 541.225 1.79213ZM96.7753 0C87.3725 0 79.75 7.62247 79.75 17.0253V344.09C79.75 353.493 87.3725 361.115 96.7753 361.115H541.225C550.627 361.115 558.25 353.493 558.25 344.09V17.0253C558.25 7.62248 550.627 0 541.225 0H96.7753Z" fill="url(#paint1_linear_757_682)" />
  <path d="M364.699 281.816C364.699 278.103 367.71 275.093 371.425 275.093H390.761C394.475 275.093 397.486 278.103 397.486 281.816V301.147C397.486 304.861 394.475 307.871 390.761 307.871H371.425C367.71 307.871 364.699 304.861 364.699 301.147V281.816Z" fill="#51CB9C" />
  <path d="M376.263 297.786L370.583 291.468L376.263 285.179H378.974L373.27 291.468L378.974 297.786H376.263Z" fill="white" />
  <path d="M383.186 285.179H385.896L391.6 291.468L385.896 297.786H383.186L388.89 291.468L383.186 285.179Z" fill="white" />
  <path d="M258.066 103.499C258.066 99.7857 261.078 96.7754 264.792 96.7754H284.128C287.842 96.7754 290.853 99.7857 290.853 103.499V122.83C290.853 126.543 287.842 129.553 284.128 129.553H264.792C261.078 129.553 258.066 126.543 258.066 122.83V103.499Z" fill="#1ABCFE" />
  <path fill-rule="evenodd" clip-rule="evenodd" d="M277.349 109.139L274.687 105.066H266.7V122.716H282.673V109.139H277.349ZM280.572 111.241H276.212L273.549 107.168H268.802V120.615H280.572V111.241Z" fill="white" />
  <path d="M425.631 140.237C425.631 136.524 428.642 133.514 432.356 133.514H451.692C455.407 133.514 458.418 136.524 458.418 140.237V159.568C458.418 163.281 455.407 166.292 451.692 166.292H432.356C428.642 166.292 425.631 163.281 425.631 159.568V140.237Z" fill="#FFC04A" />
  <path d="M434.039 149.055C435.399 148.801 436.079 148.102 436.079 146.955C436.079 146.448 436.013 145.582 435.879 144.356C435.746 143.049 435.679 142.103 435.679 141.516C435.679 140.556 435.946 139.823 436.479 139.316C437.026 138.81 437.753 138.557 438.659 138.557H439.82V140.136H438.999C438.479 140.136 438.093 140.256 437.839 140.496C437.586 140.723 437.459 141.103 437.459 141.636C437.459 142.023 437.486 142.503 437.539 143.076C437.593 143.636 437.626 144.016 437.639 144.216C437.773 145.495 437.839 146.428 437.839 147.015C437.839 147.722 437.659 148.315 437.299 148.795C436.953 149.261 436.413 149.575 435.679 149.735V149.775C436.413 149.935 436.953 150.254 437.299 150.734C437.659 151.214 437.839 151.807 437.839 152.514C437.839 153.101 437.773 154.034 437.639 155.314C437.626 155.513 437.593 155.9 437.539 156.473C437.486 157.033 437.459 157.506 437.459 157.893C437.459 158.426 437.586 158.806 437.839 159.033C438.093 159.273 438.479 159.393 438.999 159.393H439.82V160.972H438.659C437.753 160.972 437.026 160.719 436.479 160.213C435.946 159.706 435.679 158.973 435.679 158.013C435.679 157.426 435.746 156.48 435.879 155.174C436.013 153.947 436.079 153.081 436.079 152.574C436.079 151.428 435.399 150.728 434.039 150.474V149.055Z" fill="#1C1E53" />
  <path d="M450.255 150.474C448.895 150.728 448.215 151.428 448.215 152.574C448.215 153.081 448.282 153.947 448.415 155.174C448.548 156.48 448.615 157.426 448.615 158.013C448.615 158.973 448.342 159.706 447.795 160.213C447.262 160.719 446.541 160.972 445.635 160.972H444.475V159.393H445.295C445.815 159.393 446.201 159.273 446.455 159.033C446.708 158.806 446.835 158.426 446.835 157.893C446.835 157.506 446.808 157.033 446.755 156.473C446.701 155.9 446.668 155.513 446.655 155.314C446.521 154.034 446.455 153.101 446.455 152.514C446.455 151.807 446.628 151.214 446.975 150.734C447.335 150.254 447.882 149.935 448.615 149.775V149.735C447.882 149.575 447.335 149.261 446.975 148.795C446.628 148.315 446.455 147.722 446.455 147.015C446.455 146.429 446.521 145.495 446.655 144.216C446.668 144.016 446.701 143.636 446.755 143.076C446.808 142.503 446.835 142.023 446.835 141.636C446.835 141.103 446.708 140.723 446.455 140.496C446.201 140.256 445.815 140.136 445.295 140.136H444.475V138.557H445.635C446.541 138.557 447.262 138.81 447.795 139.316C448.342 139.823 448.615 140.556 448.615 141.516C448.615 142.103 448.548 143.049 448.415 144.356C448.282 145.582 448.215 146.448 448.215 146.955C448.215 148.102 448.895 148.801 450.255 149.055V150.474Z" fill="#1C1E53" />
  <path d="M0 101.256C0 95.3171 4.8142 90.5029 10.7528 90.5029H182.798C188.736 90.5029 193.551 95.3171 193.551 101.256V212.368C193.551 218.307 188.736 223.121 182.798 223.121H10.7528C4.8142 223.121 0 218.307 0 212.368V101.256Z" fill="url(#paint2_linear_757_682)" />
  <path fill-rule="evenodd" clip-rule="evenodd" d="M182.798 92.2951H10.7528C5.80397 92.2951 1.79213 96.3069 1.79213 101.256V212.368C1.79213 217.317 5.80397 221.329 10.7528 221.329H182.798C187.747 221.329 191.758 217.317 191.758 212.368V101.256C191.758 96.3069 187.747 92.2951 182.798 92.2951ZM10.7528 90.5029C4.8142 90.5029 0 95.3171 0 101.256V212.368C0 218.307 4.8142 223.121 10.7528 223.121H182.798C188.736 223.121 193.551 218.307 193.551 212.368V101.256C193.551 95.3171 188.736 90.5029 182.798 90.5029H10.7528Z" fill="url(#paint3_linear_757_682)" />
  <path d="M21.5059 125.45C21.5059 122.48 23.913 120.073 26.8823 120.073H77.062C80.0313 120.073 82.4384 122.48 82.4384 125.45V182.798C82.4384 185.767 80.0313 188.174 77.062 188.174H26.8823C23.913 188.174 21.5059 185.767 21.5059 182.798V125.45Z" fill="white" fill-opacity="0.17" />
  <path d="M94.0859 125.002C94.0859 122.28 96.2924 120.073 99.0143 120.073H162.635C165.357 120.073 167.563 122.28 167.563 125.002C167.563 127.723 165.357 129.93 162.635 129.93H99.0143C96.2924 129.93 94.0859 127.723 94.0859 125.002Z" fill="white" fill-opacity="0.6" />
  <path d="M94.0859 143.819C94.0859 141.097 96.2924 138.891 99.0143 138.891H162.635C165.357 138.891 167.563 141.097 167.563 143.819C167.563 146.541 165.357 148.747 162.635 148.747H99.0143C96.2924 148.747 94.0859 146.541 94.0859 143.819Z" fill="white" fill-opacity="0.26" />
  <path d="M94.0859 175.181C94.0859 166.025 101.508 158.604 110.663 158.604H111.559C120.715 158.604 128.136 166.025 128.136 175.181C128.136 184.336 120.715 191.758 111.559 191.758H110.663C101.508 191.758 94.0859 184.336 94.0859 175.181Z" fill="#767799" />
  <path d="M90.5039 33.6028C90.5039 23.4576 98.7282 15.2334 108.873 15.2334H521.96C532.105 15.2334 540.33 23.4576 540.33 33.6028C540.33 43.7479 532.105 51.9722 521.96 51.9722H108.873C98.7281 51.9722 90.5039 43.7479 90.5039 33.6028Z" fill="url(#paint4_linear_757_682)" />
  <path d="M465.955 199.823C465.955 193.885 470.769 189.07 476.708 189.07H627.247C633.186 189.07 638 193.885 638 199.823V310.935C638 316.874 633.186 321.688 627.247 321.688H476.708C470.769 321.688 465.955 316.874 465.955 310.935V199.823Z" fill="url(#paint5_linear_757_682)" />
  <path fill-rule="evenodd" clip-rule="evenodd" d="M627.247 190.862H476.708C471.759 190.862 467.747 194.874 467.747 199.823V310.935C467.747 315.884 471.759 319.896 476.708 319.896H627.247C632.196 319.896 636.208 315.884 636.208 310.935V199.823C636.208 194.874 632.196 190.862 627.247 190.862ZM476.708 189.07C470.769 189.07 465.955 193.885 465.955 199.823V310.935C465.955 316.874 470.769 321.688 476.708 321.688H627.247C633.186 321.688 638 316.874 638 310.935V199.823C638 193.885 633.186 189.07 627.247 189.07H476.708Z" fill="url(#paint6_linear_757_682)" />
  <path d="M481.885 210.575C481.885 208.596 483.489 206.991 485.469 206.991H618.485C620.465 206.991 622.07 208.596 622.07 210.575C622.07 212.555 620.465 214.16 618.485 214.16H485.469C483.489 214.16 481.885 212.555 481.885 210.575Z" fill="url(#paint7_linear_757_682)" />
  <path d="M481.885 228.497C481.885 226.518 483.489 224.913 485.469 224.913H528.48C530.46 224.913 532.065 226.518 532.065 228.497C532.065 230.477 530.46 232.082 528.48 232.082H485.469C483.489 232.082 481.885 230.477 481.885 228.497Z" fill="url(#paint8_linear_757_682)" />
  <path d="M538.437 228.497C538.437 226.518 540.041 224.913 542.021 224.913H558.747C560.727 224.913 562.332 226.518 562.332 228.497C562.332 230.477 560.727 232.082 558.747 232.082H542.021C540.041 232.082 538.437 230.477 538.437 228.497Z" fill="url(#paint9_linear_757_682)" />
  <path d="M481.885 300.183C481.885 298.203 483.489 296.599 485.469 296.599H528.48C530.46 296.599 532.065 298.203 532.065 300.183C532.065 302.162 530.46 303.767 528.48 303.767H485.469C483.489 303.767 481.885 302.162 481.885 300.183Z" fill="url(#paint10_linear_757_682)" />
  <path d="M538.437 300.183C538.437 298.203 540.041 296.599 542.021 296.599H558.747C560.727 296.599 562.332 298.203 562.332 300.183C562.332 302.162 560.727 303.767 558.747 303.767H542.021C540.041 303.767 538.437 302.162 538.437 300.183Z" fill="url(#paint11_linear_757_682)" />
  <path d="M510.56 264.34C510.56 262.361 512.164 260.756 514.144 260.756H526.091C528.071 260.756 529.676 262.361 529.676 264.34C529.676 266.32 528.071 267.924 526.091 267.924H514.144C512.164 267.924 510.56 266.32 510.56 264.34Z" fill="url(#paint12_linear_757_682)" />
  <path d="M536.845 264.34C536.845 262.361 538.449 260.756 540.429 260.756H591.405C593.385 260.756 594.99 262.361 594.99 264.34C594.99 266.32 593.385 267.924 591.405 267.924H540.429C538.449 267.924 536.845 266.32 536.845 264.34Z" fill="url(#paint13_linear_757_682)" />
  <path d="M481.885 264.34C481.885 262.361 483.489 260.756 485.469 260.756H502.196C504.175 260.756 505.78 262.361 505.78 264.34C505.78 266.32 504.175 267.924 502.196 267.924H485.469C483.489 267.924 481.885 266.32 481.885 264.34Z" fill="url(#paint14_linear_757_682)" />
  <path d="M481.885 246.418C481.885 244.439 483.489 242.834 485.469 242.834H543.614C545.593 242.834 547.198 244.439 547.198 246.418C547.198 248.398 545.593 250.003 543.614 250.003H485.469C483.489 250.003 481.885 248.398 481.885 246.418Z" fill="url(#paint15_linear_757_682)" />
  <path d="M552.774 246.418C552.774 244.439 554.379 242.834 556.359 242.834H583.44C585.419 242.834 587.024 244.439 587.024 246.418C587.024 248.398 585.419 250.003 583.44 250.003H556.359C554.379 250.003 552.774 248.398 552.774 246.418Z" fill="url(#paint16_linear_757_682)" />
  <path d="M481.885 282.261C481.885 280.281 483.489 278.677 485.469 278.677H543.614C545.593 278.677 547.198 280.281 547.198 282.261C547.198 284.241 545.593 285.845 543.614 285.845H485.469C483.489 285.845 481.885 284.241 481.885 282.261Z" fill="url(#paint17_linear_757_682)" />
  <path d="M123.343 33.8045C123.343 37.1979 120.591 39.9488 117.197 39.9488C113.802 39.9488 111.051 37.1979 111.051 33.8045C111.051 30.4111 113.802 27.6602 117.197 27.6602C120.591 27.6602 123.343 30.4111 123.343 33.8045Z" fill="#FED280" />
  <path d="M144.855 33.8045C144.855 37.1979 142.103 39.9488 138.709 39.9488C135.314 39.9488 132.562 37.1979 132.562 33.8045C132.562 30.4111 135.314 27.6602 138.709 27.6602C142.103 27.6602 144.855 30.4111 144.855 33.8045Z" fill="#8CFEE3" fill-opacity="0.9" />
  <path d="M166.368 33.8045C166.368 37.1979 163.617 39.9488 160.222 39.9488C156.828 39.9488 154.076 37.1979 154.076 33.8045C154.076 30.4111 156.828 27.6602 160.222 27.6602C163.617 27.6602 166.368 30.4111 166.368 33.8045Z" fill="#FF8DA9" fill-opacity="0.9" />
  <path d="M48.195 152.971C46.5054 150.767 43.139 150.914 41.6469 153.256L29.7979 171.857C28.1017 174.52 30.0144 178.006 33.1716 178.006H70.9104C74.1764 178.006 76.0658 174.303 74.1494 171.659L67.458 162.425C65.977 160.381 62.9963 160.203 61.2825 162.056L61.1577 162.191C59.4737 164.012 56.5556 163.877 55.0466 161.909L48.195 152.971Z" fill="white" />
  <path d="M71.479 140.027C71.479 143.243 68.8713 145.851 65.6545 145.851C62.4378 145.851 59.8301 143.243 59.8301 140.027C59.8301 136.81 62.4378 134.202 65.6545 134.202C68.8713 134.202 71.479 136.81 71.479 140.027Z" fill="#C4C5DC" />
  <path fill-rule="evenodd" clip-rule="evenodd" d="M192.43 153.228C192.43 152.609 192.931 152.107 193.55 152.107H327.08V178.486C327.08 179.105 326.578 179.606 325.96 179.606C325.341 179.606 324.84 179.105 324.84 178.486V154.348H193.55C192.931 154.348 192.43 153.846 192.43 153.228Z" fill="url(#paint18_linear_757_682)" />
  <path fill-rule="evenodd" clip-rule="evenodd" d="M467.075 255.379C467.075 255.998 466.574 256.499 465.955 256.499L325.256 256.499L325.256 231.121C325.256 230.502 325.758 230 326.376 230C326.995 230 327.497 230.502 327.497 231.121L327.497 254.259L465.955 254.259C466.574 254.259 467.075 254.76 467.075 255.379Z" fill="url(#paint19_linear_757_682)" />
  <g filter="url(#filter0_d_757_682)">
    <path fill-rule="evenodd" clip-rule="evenodd" d="M324.056 199.554C324.05 199.771 324.089 199.875 324.287 199.875H329.06C329.924 199.939 330.697 200.155 331.351 200.575C331.805 200.866 332.137 201.213 332.387 201.597C332.83 202.278 333.081 203.261 333.217 204.055C333.275 204.398 333.302 204.719 333.24 204.867C333.21 204.938 333.166 204.985 333.107 205.007C332.779 205.132 332.432 204.704 332.247 204.499C331.367 203.524 330.088 203.121 328.579 203.045H324.216C324.06 203.071 324.004 203.18 324.02 203.349V204.512C324.011 204.899 323.805 205.031 323.397 204.9L319.64 202.108L319.27 201.834L319.176 201.764C318.874 201.506 318.998 201.272 319.269 201.07L319.556 200.856L323.156 198.173C323.595 197.845 324.056 197.758 324.056 198.464V199.554ZM328.236 211.427C328.242 211.211 328.203 211.107 328.005 211.107H323.232C322.368 211.043 321.595 210.827 320.941 210.407C320.484 210.113 320.151 209.765 319.901 209.378C319.448 208.678 319.153 207.539 319.044 206.721C319.01 206.46 319.002 206.233 319.052 206.114C319.082 206.044 319.126 205.997 319.185 205.974C319.513 205.85 319.86 206.278 320.045 206.482C320.925 207.457 322.205 207.861 323.713 207.936H328.076C328.232 207.911 328.288 207.801 328.272 207.633V206.469C328.281 206.082 328.487 205.951 328.895 206.081L332.652 208.873L333.022 209.148L333.116 209.218C333.418 209.475 333.294 209.709 333.023 209.912L332.736 210.125L329.137 212.809C328.697 213.136 328.237 213.224 328.237 212.518L328.236 211.427Z" fill="#88F1DB" />
  </g>
  <circle cx="326" cy="205" r="19" stroke="white" stroke-width="2" />
  <path d="M248.211 153.227C248.211 158.176 244.2 162.188 239.251 162.188C234.302 162.188 230.29 158.176 230.29 153.227C230.29 148.278 234.302 144.267 239.251 144.267C244.2 144.267 248.211 148.278 248.211 153.227Z" fill="#383A68" />
  <path fill-rule="evenodd" clip-rule="evenodd" d="M239.251 160.396C243.21 160.396 246.419 157.186 246.419 153.227C246.419 149.268 243.21 146.059 239.251 146.059C235.292 146.059 232.082 149.268 232.082 153.227C232.082 157.186 235.292 160.396 239.251 160.396ZM239.251 162.188C244.2 162.188 248.211 158.176 248.211 153.227C248.211 148.278 244.2 144.267 239.251 144.267C234.302 144.267 230.29 148.278 230.29 153.227C230.29 158.176 234.302 162.188 239.251 162.188Z" fill="#63648A" />
  <path d="M443.552 255.38C443.552 260.328 439.54 264.34 434.592 264.34C429.643 264.34 425.631 260.328 425.631 255.38C425.631 250.431 429.643 246.419 434.592 246.419C439.54 246.419 443.552 250.431 443.552 255.38Z" fill="#383A68" />
  <path fill-rule="evenodd" clip-rule="evenodd" d="M434.592 262.548C438.551 262.548 441.76 259.339 441.76 255.38C441.76 251.421 438.551 248.211 434.592 248.211C430.632 248.211 427.423 251.421 427.423 255.38C427.423 259.339 430.632 262.548 434.592 262.548ZM434.592 264.34C439.54 264.34 443.552 260.328 443.552 255.38C443.552 250.431 439.54 246.419 434.592 246.419C429.643 246.419 425.631 250.431 425.631 255.38C425.631 260.328 429.643 264.34 434.592 264.34Z" fill="#63648A" />
  <path d="M134.41 165.327C134.41 161.614 137.421 158.604 141.136 158.604H160.472C164.186 158.604 167.197 161.614 167.197 165.327V184.658C167.197 188.371 164.186 191.382 160.472 191.382H141.136C137.421 191.382 134.41 188.371 134.41 184.658V165.327Z" fill="#767799" />
  <path fill-rule="evenodd" clip-rule="evenodd" d="M154.065 184.393H148.007V181.872H154.065V184.393Z" fill="white" />
  <path fill-rule="evenodd" clip-rule="evenodd" d="M142.396 167.429H159.21V171.485H156.688V169.95H144.919V171.485H142.396V167.429Z" fill="white" />
  <path fill-rule="evenodd" clip-rule="evenodd" d="M149.699 183.274L149.854 168.831L152.376 168.858L152.22 183.301L149.699 183.274Z" fill="white" />
  <defs>
    <filter id="filter0_d_757_682" x="305" y="187.927" width="42.292" height="43.1279" filterUnits="userSpaceOnUse" color-interpolation-filters="sRGB">
      <feFlood flood-opacity="0" result="BackgroundImageFix" />
      <feColorMatrix in="SourceAlpha" type="matrix" values="0 0 0 0 0 0 0 0 0 0 0 0 0 0 0 0 0 0 127 0" result="hardAlpha" />
      <feOffset dy="4" />
      <feGaussianBlur stdDeviation="7" />
      <feComposite in2="hardAlpha" operator="out" />
      <feColorMatrix type="matrix" values="0 0 0 0 0.533333 0 0 0 0 0.945098 0 0 0 0 0.858824 0 0 0 1 0" />
      <feBlend mode="normal" in2="BackgroundImageFix" result="effect1_dropShadow_757_682" />
      <feBlend mode="normal" in="SourceGraphic" in2="effect1_dropShadow_757_682" result="shape" />
    </filter>
    <linearGradient id="paint0_linear_757_682" x1="319.25" y1="0" x2="442.61" y2="524.825" gradientUnits="userSpaceOnUse">
      <stop stop-color="white" stop-opacity="0.16" />
      <stop offset="1" stop-color="#C4C4C4" stop-opacity="0" />
    </linearGradient>
    <linearGradient id="paint1_linear_757_682" x1="319" y1="1.34022e-05" x2="657.888" y2="244.481" gradientUnits="userSpaceOnUse">
      <stop stop-color="white" stop-opacity="0.17" />
      <stop offset="1" stop-opacity="0" />
    </linearGradient>
    <linearGradient id="paint2_linear_757_682" x1="41.8266" y1="126.113" x2="278.936" y2="434.827" gradientUnits="userSpaceOnUse">
      <stop stop-color="#40416E" />
      <stop offset="1" stop-color="#5A5B8B" />
    </linearGradient>
    <linearGradient id="paint3_linear_757_682" x1="96.7753" y1="90.5029" x2="179.171" y2="427.829" gradientUnits="userSpaceOnUse">
      <stop stop-color="white" stop-opacity="0.17" />
      <stop offset="1" stop-opacity="0" />
    </linearGradient>
    <linearGradient id="paint4_linear_757_682" x1="315.417" y1="15.2334" x2="383.39" y2="224.788" gradientUnits="userSpaceOnUse">
      <stop stop-color="white" stop-opacity="0.15" />
      <stop offset="1" stop-color="#C4C4C4" stop-opacity="0" />
    </linearGradient>
    <linearGradient id="paint5_linear_757_682" x1="797.652" y1="535.76" x2="326.286" y2="107.827" gradientUnits="userSpaceOnUse">
      <stop stop-color="#40416E" />
      <stop offset="1" stop-color="#5A5B8B" />
    </linearGradient>
    <linearGradient id="paint6_linear_757_682" x1="551.978" y1="189.07" x2="643.306" y2="521.426" gradientUnits="userSpaceOnUse">
      <stop stop-color="white" stop-opacity="0.17" />
      <stop offset="1" stop-opacity="0" />
    </linearGradient>
    <linearGradient id="paint7_linear_757_682" x1="551.977" y1="206.991" x2="560.791" y2="250.392" gradientUnits="userSpaceOnUse">
      <stop stop-color="white" stop-opacity="0.56" />
      <stop offset="1" stop-color="#C4C4C4" stop-opacity="0" />
    </linearGradient>
    <linearGradient id="paint8_linear_757_682" x1="506.975" y1="224.913" x2="526.371" y2="259.099" gradientUnits="userSpaceOnUse">
      <stop stop-color="#F9C746" stop-opacity="0.52" />
      <stop offset="1" stop-color="#C4C4C4" stop-opacity="0" />
    </linearGradient>
    <linearGradient id="paint9_linear_757_682" x1="550.384" y1="224.913" x2="572.637" y2="243.59" gradientUnits="userSpaceOnUse">
      <stop stop-color="#84EBE5" stop-opacity="0.62" />
      <stop offset="1" stop-color="#C4C4C4" stop-opacity="0" />
    </linearGradient>
    <linearGradient id="paint10_linear_757_682" x1="506.975" y1="296.599" x2="526.371" y2="330.785" gradientUnits="userSpaceOnUse">
      <stop stop-color="white" stop-opacity="0.56" />
      <stop offset="1" stop-color="#C4C4C4" stop-opacity="0" />
    </linearGradient>
    <linearGradient id="paint11_linear_757_682" x1="550.384" y1="296.599" x2="572.637" y2="315.276" gradientUnits="userSpaceOnUse">
      <stop stop-color="#F47D9E" />
      <stop offset="1" stop-color="#C4C4C4" stop-opacity="0" />
    </linearGradient>
    <linearGradient id="paint12_linear_757_682" x1="520.118" y1="260.756" x2="541.032" y2="274.799" gradientUnits="userSpaceOnUse">
      <stop stop-color="#F2C87D" />
      <stop offset="1" stop-color="#C4C4C4" stop-opacity="0" />
    </linearGradient>
    <linearGradient id="paint13_linear_757_682" x1="565.917" y1="260.756" x2="583.765" y2="297.207" gradientUnits="userSpaceOnUse">
      <stop stop-color="white" stop-opacity="0.62" />
      <stop offset="1" stop-color="#C4C4C4" stop-opacity="0" />
    </linearGradient>
    <linearGradient id="paint14_linear_757_682" x1="488.257" y1="258.964" x2="524.934" y2="264.143" gradientUnits="userSpaceOnUse">
      <stop stop-color="#F37D9D" />
      <stop offset="1" stop-color="#C4C4C4" stop-opacity="0" />
    </linearGradient>
    <linearGradient id="paint15_linear_757_682" x1="514.541" y1="242.834" x2="531.095" y2="280.809" gradientUnits="userSpaceOnUse">
      <stop stop-color="white" stop-opacity="0.58" />
      <stop offset="1" stop-color="#C4C4C4" stop-opacity="0" />
    </linearGradient>
    <linearGradient id="paint16_linear_757_682" x1="569.899" y1="242.834" x2="592.114" y2="269.559" gradientUnits="userSpaceOnUse">
      <stop stop-color="white" stop-opacity="0.45" />
      <stop offset="1" stop-color="#C4C4C4" stop-opacity="0" />
    </linearGradient>
    <linearGradient id="paint17_linear_757_682" x1="514.541" y1="278.677" x2="531.095" y2="316.652" gradientUnits="userSpaceOnUse">
      <stop stop-color="#70D1E7" />
      <stop offset="1" stop-color="#C4C4C4" stop-opacity="0" />
    </linearGradient>
    <linearGradient id="paint18_linear_757_682" x1="314.831" y1="147.041" x2="135.117" y2="201.28" gradientUnits="userSpaceOnUse">
      <stop stop-color="#767799" />
      <stop offset="1" stop-color="#767799" stop-opacity="0" />
    </linearGradient>
    <linearGradient id="paint19_linear_757_682" x1="338.205" y1="261.565" x2="525.789" y2="201.931" gradientUnits="userSpaceOnUse">
      <stop stop-color="#767799" />
      <stop offset="1" stop-color="#767799" stop-opacity="0" />
    </linearGradient>
  </defs>
</symbol>

</defs>
</svg>