<svg aria-hidden="true" style="position: absolute; width: 0; height: 0; overflow: hidden;" version="1.1" xmlns="http://www.w3.org/2000/svg" xmlns:xlink="http://www.w3.org/1999/xlink">
  <defs>

<symbol id="Logo" viewBox="0 0 156 32">
<path d="M155.882 24.156v3.864h-3.241c-3.46-0.109-5.308-1.977-5.308-5.485v-8.826h-2.263v-3.39h2.263v-3.795h4.783v3.756h3.657v3.38h-3.657v8.401c0 1.137 0.228 2.046 1.978 2.046l1.788 0.049z"></path>
<path d="M126.006 19.204v-0.257c-0.052-1.137 0.121-2.273 0.509-3.342s0.983-2.052 1.752-2.892c0.769-0.839 1.695-1.518 2.726-1.999s2.148-0.753 3.284-0.801c0.228 0 0.465 0 0.692 0 4.517 0 8.48 2.629 8.48 8.895v1.334h-12.552c0.128 2.886 1.69 4.517 4.319 4.517 2.263 0 3.32-0.988 3.628-2.431h4.517c-0.554 3.766-3.558 5.861-8.312 5.861-5.219-0.040-9.044-3.341-9.044-8.885zM138.747 17.119c-0.169-2.629-1.492-3.894-3.795-3.894-2.304 0-3.628 1.423-3.954 3.894h7.749z"></path>
<path d="M106.477 19.204v-0.257c-0.052-1.135 0.121-2.269 0.507-3.338s0.98-2.050 1.747-2.889 1.691-1.519 2.72-2c1.029-0.482 2.143-0.756 3.278-0.806 0.227 0 0.465 0 0.692 0 4.517 0 8.49 2.629 8.49 8.895v1.334h-12.542c0.129 2.886 1.69 4.517 4.319 4.517 2.263 0 3.321-0.988 3.627-2.431h4.517c-0.563 3.766-3.568 5.861-8.322 5.861-5.209-0.040-9.033-3.341-9.033-8.885zM119.216 17.119c-0.168-2.629-1.492-3.894-3.795-3.894s-3.588 1.463-3.953 3.884l7.749 0.010z"></path>
<path d="M79.068 10.279h5.060l3.094 11.722 3.39-11.722h3.953l3.064 11.722 3.262-11.722h4.635l-5.495 17.415h-4.744l-2.965-10.931-3.173 10.931h-4.803l-5.278-17.415z"></path>
<path d="M62.988 22.218h4.517c0.208 1.572 0.988 2.471 3.064 2.471 1.858 0 2.718-0.702 2.718-1.898s-0.988-1.7-3.518-2.056c-4.635-0.702-6.424-2.036-6.424-5.436 0-3.627 3.321-5.426 6.918-5.426 3.864 0 6.78 1.403 7.195 5.406h-4.457c-0.028-0.309-0.118-0.61-0.263-0.885s-0.344-0.518-0.584-0.715c-0.24-0.197-0.516-0.346-0.814-0.436s-0.61-0.12-0.919-0.089h-0.148c-1.562 0-2.471 0.731-2.471 1.799s0.84 1.532 3.39 1.898c4.329 0.652 6.75 1.749 6.75 5.475s-2.738 5.723-7.324 5.723c-4.586 0-7.502-2.066-7.63-5.831z"></path>
<path d="M43.795 10.278h4.784v2.758c0.539-1.012 1.358-1.848 2.358-2.409s2.141-0.822 3.285-0.754c3.39 0 5.851 2.066 5.851 6.78v11.079h-4.724v-10.388c0-2.362-0.919-3.489-3.054-3.489-0.451-0.039-0.906 0.011-1.337 0.148s-0.832 0.358-1.178 0.65c-0.346 0.292-0.631 0.649-0.839 1.052s-0.334 0.842-0.371 1.293c-0.025 0.21-0.025 0.423 0 0.633v10.061h-4.774v-17.415z"></path>
<path d="M34.562 5.9c-0.017-0.477 0.107-0.948 0.358-1.354s0.616-0.729 1.050-0.927c0.434-0.198 0.917-0.263 1.389-0.187s0.909 0.291 1.258 0.617 0.594 0.747 0.703 1.212c0.109 0.465 0.078 0.951-0.089 1.398s-0.464 0.834-0.851 1.112c-0.388 0.278-0.849 0.436-1.326 0.452h-0.089c-0.296 0.019-0.593-0.021-0.873-0.117s-0.54-0.247-0.762-0.443c-0.222-0.197-0.403-0.435-0.533-0.702s-0.206-0.556-0.223-0.853c-0.008-0.069-0.012-0.138-0.010-0.208zM34.562 10.279h4.833v17.415h-4.813l-0.020-17.415z"></path>
<path d="M16.348 3.894h15.28v4.22h-9.884v6.296h7.828v4.062h-7.838v9.221h-5.386v-23.8z"></path>
<path d="M7.126 11.682c0 1.492 0 3.311-2.056 4.052 2.105 0.721 2.056 2.253 2.056 3.855v5.93c0 1.127 0.455 1.809 1.265 1.977 0.178 0.060 0.366 0.087 0.553 0.079h1.977v3.953h-3.262c-3.479 0-5.396-1.977-5.396-5.643v-7.017c-0.025-0.36-0.184-0.698-0.445-0.947s-0.607-0.391-0.968-0.397h-0.85v-3.469h0.85c0.368-0.005 0.72-0.151 0.984-0.409s0.417-0.607 0.43-0.975v-7.116c0-3.607 1.878-5.555 5.396-5.555h3.291v3.894h-1.977c-0.188 0.001-0.375 0.031-0.553 0.089-0.81 0.208-1.265 0.88-1.265 1.977l-0.030 5.723z"></path>
</symbol>

<symbol id="icon-menu" viewBox="0 0 64 32">
<path stroke-linecap="round" stroke-linejoin="round" stroke-width="5.714" d="M2.857 4.667h58.286M2.857 27.333h58.286" />
</symbol>

<symbol id="linkedin" viewBox="0 0 32 32">
<path d="M29.631 0h-27.269c-1.306 0-2.362 1.031-2.362 2.306v27.381c0 1.275 1.056 2.312 2.362 2.312h27.269c1.306 0 2.369-1.037 2.369-2.306v-27.388c0-1.275-1.062-2.306-2.369-2.306zM9.494 27.269h-4.75v-15.275h4.75v15.275zM7.119 9.912c-1.525 0-2.756-1.231-2.756-2.75s1.231-2.75 2.756-2.75c1.519 0 2.75 1.231 2.75 2.75 0 1.512-1.231 2.75-2.75 2.75zM27.269 27.269h-4.744v-7.425c0-1.769-0.031-4.050-2.469-4.050-2.469 0-2.844 1.931-2.844 3.925v7.55h-4.738v-15.275h4.55v2.088h0.063c0.631-1.2 2.181-2.469 4.488-2.469 4.806 0 5.694 3.162 5.694 7.275v8.381z"></path>
</symbol>

<symbol id="instagram" viewBox="0 0 34 32">
<path d="M16.668 2.881c4.275 0 4.781 0.019 6.462 0.094 1.563 0.069 2.406 0.331 2.969 0.55 0.744 0.288 1.281 0.638 1.838 1.194 0.562 0.562 0.906 1.094 1.194 1.838 0.219 0.563 0.481 1.412 0.55 2.969 0.075 1.688 0.094 2.194 0.094 6.463 0 4.275-0.019 4.781-0.094 6.463-0.069 1.563-0.331 2.406-0.55 2.969-0.287 0.744-0.637 1.281-1.194 1.837-0.563 0.563-1.094 0.906-1.838 1.194-0.562 0.219-1.412 0.481-2.969 0.55-1.687 0.075-2.194 0.094-6.462 0.094-4.275 0-4.781-0.019-6.463-0.094-1.563-0.069-2.406-0.331-2.969-0.55-0.744-0.287-1.281-0.637-1.838-1.194-0.563-0.562-0.906-1.094-1.194-1.837-0.219-0.563-0.481-1.413-0.55-2.969-0.075-1.687-0.094-2.194-0.094-6.463 0-4.275 0.019-4.781 0.094-6.463 0.069-1.563 0.331-2.406 0.55-2.969 0.287-0.744 0.638-1.281 1.194-1.838 0.563-0.563 1.094-0.906 1.838-1.194 0.563-0.219 1.412-0.481 2.969-0.55 1.681-0.075 2.188-0.094 6.463-0.094zM16.668 0c-4.344 0-4.888 0.019-6.594 0.094-1.7 0.075-2.869 0.35-3.881 0.744-1.056 0.412-1.95 0.956-2.837 1.85-0.894 0.888-1.438 1.781-1.85 2.831-0.394 1.019-0.669 2.181-0.744 3.881-0.075 1.713-0.094 2.256-0.094 6.6s0.019 4.888 0.094 6.594c0.075 1.7 0.35 2.869 0.744 3.881 0.413 1.056 0.956 1.95 1.85 2.837 0.887 0.888 1.781 1.438 2.831 1.844 1.019 0.394 2.181 0.669 3.881 0.744 1.706 0.075 2.25 0.094 6.594 0.094s4.887-0.019 6.594-0.094c1.7-0.075 2.869-0.35 3.881-0.744 1.050-0.406 1.944-0.956 2.831-1.844s1.437-1.781 1.844-2.831c0.394-1.019 0.669-2.181 0.744-3.881 0.075-1.706 0.094-2.25 0.094-6.594s-0.019-4.887-0.094-6.594c-0.075-1.7-0.35-2.869-0.744-3.881-0.394-1.062-0.938-1.956-1.831-2.844-0.887-0.887-1.781-1.438-2.831-1.844-1.019-0.394-2.181-0.669-3.881-0.744-1.713-0.081-2.256-0.1-6.6-0.1z"></path>
<path d="M16.668 7.781c-4.537 0-8.219 3.681-8.219 8.219s3.681 8.219 8.219 8.219c4.537 0 8.219-3.681 8.219-8.219s-3.681-8.219-8.219-8.219zM16.668 21.331c-2.944 0-5.331-2.387-5.331-5.331s2.387-5.331 5.331-5.331c2.944 0 5.331 2.388 5.331 5.331s-2.387 5.331-5.331 5.331z"></path>
<path d="M27.13 7.458c0 1.062-0.862 1.919-1.919 1.919-1.063 0-1.919-0.863-1.919-1.919 0-1.063 0.862-1.919 1.919-1.919s1.919 0.862 1.919 1.919z"></path>
</symbol>

<symbol id="facebook" viewBox="0 0 32 32">
<path d="M32 16c0-8.837-7.163-16-16-16s-16 7.163-16 16c0 7.986 5.851 14.605 13.5 15.806v-11.181h-4.063v-4.625h4.063v-3.525c0-4.010 2.389-6.225 6.043-6.225 1.75 0 3.582 0.313 3.582 0.313v3.938h-2.017c-1.988 0-2.608 1.233-2.608 2.5v3h4.438l-0.709 4.625h-3.728v11.181c7.649-1.2 13.5-7.82 13.5-15.806z"></path>
</symbol>

<symbol id="twitter" viewBox="0 0 39 32">
<path d="M13.027 30.858c13.797 0 21.346-11.434 21.346-21.346 0-0.321-0.007-0.65-0.022-0.971 1.469-1.062 2.736-2.377 3.742-3.884-1.368 0.608-2.82 1.006-4.306 1.179 1.566-0.938 2.738-2.413 3.299-4.149-1.473 0.873-3.083 1.489-4.763 1.821-1.131-1.202-2.628-1.998-4.257-2.265s-3.301 0.011-4.757 0.789c-1.456 0.779-2.615 2.015-3.297 3.519s-0.851 3.19-0.479 4.798c-2.982-0.15-5.9-0.924-8.563-2.274s-5.014-3.244-6.898-5.56c-0.958 1.651-1.251 3.606-0.82 5.465s1.554 3.486 3.141 4.547c-1.191-0.038-2.356-0.359-3.399-0.936v0.093c-0.001 1.733 0.598 3.413 1.696 4.754s2.626 2.261 4.324 2.603c-1.104 0.302-2.262 0.346-3.385 0.129 0.479 1.49 1.412 2.794 2.668 3.729s2.772 1.454 4.338 1.486c-2.657 2.087-5.94 3.22-9.319 3.214-0.599-0.001-1.198-0.038-1.793-0.11 3.433 2.203 7.426 3.372 11.505 3.37z"></path>
</symbol>

</defs>
</svg>